<?xml version="1.0" encoding="UTF-8" standalone="no"?>
<svg
   xmlns:dc="http://purl.org/dc/elements/1.1/"
   xmlns:cc="http://creativecommons.org/ns#"
   xmlns:rdf="http://www.w3.org/1999/02/22-rdf-syntax-ns#"
   xmlns:svg="http://www.w3.org/2000/svg"
   xmlns="http://www.w3.org/2000/svg"
   xmlns:sodipodi="http://sodipodi.sourceforge.net/DTD/sodipodi-0.dtd"
   xmlns:inkscape="http://www.inkscape.org/namespaces/inkscape"
   sodipodi:docname="icon.svg"
   inkscape:version="1.0beta2 (2b71d25, 2019-12-03)"
   id="svg8"
   version="1.1"
   viewBox="0 0 67.733332 67.733335"
   height="256"
   width="256">
  <defs
     id="defs2" />
  <sodipodi:namedview
     inkscape:window-maximized="0"
     inkscape:window-y="154"
     inkscape:window-x="470"
     inkscape:window-height="880"
     inkscape:window-width="1600"
     inkscape:guide-bbox="true"
     showguides="true"
     units="px"
     showgrid="false"
     inkscape:document-rotation="0"
     inkscape:current-layer="layer1"
     inkscape:document-units="mm"
     inkscape:cy="234.98437"
     inkscape:cx="23.957528"
     inkscape:zoom="0.56668521"
     inkscape:pageshadow="2"
     inkscape:pageopacity="0.0"
     borderopacity="1.0"
     bordercolor="#666666"
     pagecolor="#ffffff"
     id="base" />
  <metadata
     id="metadata5">
    <rdf:RDF>
      <cc:Work
         rdf:about="">
        <dc:format>image/svg+xml</dc:format>
        <dc:type
           rdf:resource="http://purl.org/dc/dcmitype/StillImage" />
        <dc:title></dc:title>
      </cc:Work>
    </rdf:RDF>
  </metadata>
  <g
     id="layer1"
     inkscape:groupmode="layer"
     inkscape:label="Layer 1">
    <path
       style="stroke-width:0.0634972;fill:#00a200;fill-opacity:1"
       inkscape:connector-curvature="0"
       id="path167"
       d="m 26.758453,36.949032 c -0.940393,0.99627 -1.887771,1.932219 -2.757682,2.935474 -1.661721,1.915075 -3.001511,4.053659 -4.289869,6.233517 -1.340425,2.266849 -3.350746,3.673311 -5.95159,4.126046 -4.6200537,0.803874 -8.9651651,-2.040164 -9.9792149,-6.610055 -0.7810152,-3.520283 0.3079613,-6.493856 3.1069166,-8.772769 1.1423141,-0.930234 2.4116225,-1.702994 3.5958443,-2.58497 3.652358,-2.719584 6.482426,-6.154146 8.692763,-10.115099 0.731487,-1.310582 1.652196,-2.444006 2.899916,-3.296138 4.751493,-3.244071 11.276462,-1.061673 13.150264,4.387654 0.140328,0.408287 0.368918,0.794985 0.603858,1.161364 1.412812,2.206526 3.082787,4.199702 5.023261,5.963019 0.06604,0.05969 0.136519,0.11493 0.248274,0.20954 0.65783,-0.6591 1.327726,-1.294072 1.958253,-1.966507 1.925234,-2.054133 3.445356,-4.394639 4.856263,-6.820231 1.496628,-2.57354 3.739348,-4.094932 6.721176,-4.392734 4.054294,-0.404477 7.72062,1.953808 9.072475,5.768718 1.24518,3.514568 0.06223,7.51743 -2.924045,9.759515 -1.180412,0.88642 -2.435116,1.67315 -3.618068,2.555761 -2.899281,2.163348 -5.26963,4.824515 -7.231058,7.85333 -0.710533,1.096596 -1.305502,2.274468 -2.075722,3.325347 -2.158904,2.946903 -5.110888,4.213037 -8.695938,3.539967 -3.610449,-0.67815 -5.884918,-2.946904 -6.867219,-6.497031 -0.06731,-0.243829 -0.175252,-0.487658 -0.314946,-0.697833 C 30.681308,41.051584 29.201189,39.2362 27.486766,37.615752 27.275955,37.416371 27.057525,37.22207 26.758453,36.949032 Z M 40.73799,49.620527 c 1.428051,-0.0064 2.765937,-0.354314 4.002227,-1.072467 1.311216,-0.761966 2.280183,-1.843958 3.033894,-3.15454 1.590604,-2.765936 3.407893,-5.36805 5.659503,-7.649504 1.937299,-1.962697 4.15843,-3.557746 6.427819,-5.103267 2.723393,-1.854117 3.898091,-4.477821 3.468215,-7.730146 -0.732757,-5.543303 -6.970719,-8.542274 -11.811109,-5.725539 -1.311851,0.763236 -2.295422,1.840148 -3.038339,3.153269 -1.572825,2.779906 -3.390114,5.378845 -5.663313,7.641884 -1.960157,1.951903 -4.171764,3.583781 -6.455757,5.126762 -2.049054,1.384238 -3.221846,3.318997 -3.489804,5.764908 -0.510518,4.660692 3.162159,8.725146 7.866664,8.74864 z M 26.971804,18.115136 c -1.647752,0.0127 -3.153905,0.478769 -4.512109,1.412812 -1.130885,0.777841 -1.948094,1.825544 -2.618624,3.009766 -1.552505,2.740538 -3.36662,5.286775 -5.613784,7.51108 -1.933489,1.913805 -4.105093,3.525363 -6.3560672,5.036596 -2.8364186,1.90428 -4.1355707,5.218832 -3.3285216,8.536559 0.762601,3.133586 3.3494757,5.467742 6.6913318,5.928731 3.204067,0.441941 6.234787,-1.167078 7.749195,-3.722839 0.586078,-0.989286 1.188032,-1.969682 1.814114,-2.933569 1.963967,-3.02437 4.324157,-5.695061 7.210103,-7.872379 1.214066,-0.916264 2.497979,-1.738553 3.724109,-2.638943 2.720219,-1.996986 3.845389,-5.598545 2.781811,-8.818487 -1.074372,-3.257404 -4.123506,-5.460121 -7.541558,-5.449327 z m 0.358759,18.318934 c 1.819193,1.624892 3.320267,3.360905 4.708315,5.298204 0.02222,-0.288912 0.03556,-0.479404 0.05143,-0.669895 0.24256,-2.876422 1.609654,-5.084854 3.973653,-6.705302 0.864197,-0.592428 1.730933,-1.183587 2.576715,-1.802049 0.625448,-0.45718 1.219146,-0.956903 1.859198,-1.462975 -1.821099,-1.639497 -3.389479,-3.439007 -4.787687,-5.399799 -0.03556,0.139058 -0.03175,0.259703 -0.03556,0.380983 -0.09842,3.204067 -1.508693,5.653153 -4.184464,7.417739 -1.398843,0.922614 -2.740538,1.934124 -4.161604,2.943094 z" />
    <path
       style="stroke-width:0.0634972"
       inkscape:connector-curvature="0"
       id="path169"
       d="m 60.180188,26.188166 c -0.0063,2.589415 -2.128425,4.700696 -4.703235,4.679107 -2.571635,-0.02159 -4.666407,-2.13033 -4.661962,-4.692441 0.0038,-2.57608 2.140489,-4.698791 4.70895,-4.678471 2.57862,0.02032 4.661962,2.12017 4.656247,4.691805 z m -4.677836,-3.917775 c -2.167793,-0.0019 -3.910791,1.739188 -3.913966,3.908886 -0.0032,2.164618 1.744268,3.912695 3.910791,3.911426 2.172238,-0.0013 3.912696,-1.740458 3.912061,-3.908886 6.35e-4,-2.170334 -1.737918,-3.909521 -3.908886,-3.911426 z" />
    <path
       style="stroke-width:0.0634972"
       inkscape:connector-curvature="0"
       id="path171"
       d="m 45.826653,41.794501 c 0.0076,2.570365 -2.083342,4.671487 -4.659422,4.682281 -2.59132,0.01016 -4.703871,-2.083977 -4.70895,-4.670217 -0.0057,-2.562745 2.098581,-4.677836 4.662597,-4.686726 2.589414,-0.0095 4.698156,2.085247 4.705775,4.674662 z m -8.593072,0.01714 c 0.0057,2.163349 1.761412,3.912061 3.92222,3.906981 2.160174,-0.0051 3.903806,-1.762681 3.899362,-3.929205 -0.0044,-2.158904 -1.767762,-3.917775 -3.921586,-3.910791 -2.155729,0.0063 -3.905076,1.770936 -3.899996,3.933015 z" />
    <path
       style="stroke-width:0.0634972;stroke:none;stroke-opacity:1;fill:#000000;fill-opacity:1"
       inkscape:connector-curvature="0"
       id="path173"
       d="m 27.011807,21.50144 c 2.635132,0.142234 4.672121,2.323997 4.528618,4.849914 -0.148583,2.616084 -2.320187,4.642913 -4.83404,4.512109 -2.627513,-0.136519 -4.672121,-2.327806 -4.527983,-4.851819 0.151123,-2.619258 2.322092,-4.646088 4.833405,-4.510204 z m -4.061914,4.660693 c -0.0095,2.171603 1.722678,3.920315 3.891106,3.929204 2.172873,0.0083 3.920951,-1.722678 3.929205,-3.891106 0.0083,-2.172238 -1.723948,-3.92095 -3.891741,-3.929205 -2.173508,-0.0076 -3.919046,1.720773 -3.92857,3.891107 z" />
    <path
       style="stroke-width:0.0634972"
       inkscape:connector-curvature="0"
       id="path175"
       d="m 17.092279,41.772277 c -0.007,2.57735 -2.100487,4.671487 -4.671487,4.674027 -2.5754452,0.0025 -4.6962507,-2.122076 -4.689266,-4.698791 0.00698,-2.57735 2.1442995,-4.695616 4.71403,-4.672757 2.57989,0.02349 4.653708,2.119536 4.646723,4.697521 z m -4.677837,3.897456 c 2.171604,-0.0013 3.914601,-1.741092 3.915236,-3.908251 6.35e-4,-2.166523 -1.742997,-3.911425 -3.910791,-3.912695 -2.164618,-0.0013 -3.9114256,1.739822 -3.9203152,3.908251 -0.00952,2.151284 1.7556972,3.9146 3.9158702,3.912695 z" />
    <path
       transform="scale(0.26458333)"
       inkscape:connector-curvature="0"
       id="path866"
       d="m 42.19643,187.14888 c -6.726439,-1.08594 -12.473194,-3.92723 -16.991375,-8.4008 -2.065288,-2.04489 -3.10356,-3.35443 -4.581558,-5.77856 -3.841754,-6.30103 -5.201389,-14.69523 -3.538919,-21.84878 0.873105,-3.75694 2.629046,-7.70316 4.7741,-10.72907 2.413942,-3.40522 4.874921,-5.57077 11.57568,-10.18607 12.585019,-8.66822 21.53217,-16.76579 29.296292,-26.51443 4.419151,-5.548695 7.572438,-10.261881 12.592865,-18.822423 1.970949,-3.360749 3.353264,-5.186122 5.765783,-7.61382 10.851307,-10.919586 28.083632,-11.638724 40.066562,-1.672057 12.82667,10.668439 14.27893,29.82336 3.22797,42.57596 -1.79494,2.07133 -3.89735,3.75883 -9.76761,7.83996 -11.26966,7.83493 -16.572818,12.21788 -22.499151,18.5951 -6.886949,7.41092 -11.780396,14.15329 -19.207667,26.46503 -2.582653,4.28111 -3.590163,5.63581 -5.851503,7.86798 -4.056718,4.00439 -9.158822,6.73267 -14.905412,7.97047 -2.303792,0.49623 -7.60995,0.63027 -9.956057,0.25151 z m 7.8314,-11.79696 c 3.049678,-0.53181 6.164525,-2.02444 8.642542,-4.14148 2.326126,-1.98727 4.361337,-5.23075 5.368664,-8.55596 0.453171,-1.49592 0.487534,-1.83622 0.487534,-4.82808 0,-2.99185 -0.03436,-3.33215 -0.487534,-4.82808 -1.955295,-6.45446 -6.795492,-11.03243 -13.259353,-12.54101 -2.086646,-0.48699 -5.891763,-0.45252 -7.996177,0.0725 -5.200929,1.29743 -9.420943,4.67975 -11.763843,9.42866 -1.508534,3.05771 -2.086699,6.17975 -1.769805,9.5568 0.213105,2.271 0.71697,4.0353 1.764702,6.17917 3.460995,7.08187 11.210636,11.0182 19.01327,9.65753 z m 55.76969,-59.08332 c 6.77605,-1.74532 11.71902,-7.06525 13.22477,-14.23335 0.37375,-1.77921 0.28752,-5.453373 -0.17156,-7.309528 -1.64625,-6.656226 -7.05278,-11.750625 -13.97867,-13.171669 -2.61586,-0.536718 -5.982423,-0.430204 -8.304002,0.262729 -6.620869,1.976162 -11.502386,7.632467 -12.622878,14.626368 -0.313439,1.956426 -0.136531,5.5728 0.356073,7.27884 1.964687,6.80436 7.893634,11.87397 15.072106,12.88757 1.662961,0.23481 4.844331,0.066 6.424161,-0.34096 z"
       style="fill:#b8b161;fill-opacity:0.17004;stroke:none;stroke-width:0.178818;stroke-opacity:1" />
    <path
       transform="scale(0.26458333)"
       inkscape:connector-curvature="0"
       id="path868"
       d="m 41.659976,186.97171 c -7.631126,-1.4115 -13.980168,-5.07792 -18.644481,-10.76672 -2.869083,-3.49926 -4.996427,-8.12086 -5.990432,-13.01405 -0.342258,-1.68484 -0.398489,-2.51849 -0.391998,-5.81158 0.0064,-3.2599 0.06573,-4.10293 0.389941,-5.54335 1.02155,-4.53857 2.977961,-8.84075 5.570224,-12.24902 2.255325,-2.96527 4.248312,-4.63413 12.27167,-10.2759 6.122017,-4.3048 10.470223,-7.73165 15.199512,-11.97884 1.941487,-1.74358 7.291065,-7.19138 9.138794,-9.3066 2.775005,-3.17673 3.291231,-3.81616 5.991125,-7.42094 3.147068,-4.201822 5.078384,-7.117418 8.409981,-12.69606 3.779423,-6.328511 4.809682,-7.77704 7.373815,-10.367488 2.7116,-2.739431 5.042443,-4.401558 8.416239,-6.001632 3.957892,-1.877089 7.010085,-2.627197 11.380784,-2.796943 8.53965,-0.331657 16.1207,2.679253 22.35288,8.877729 4.0652,4.043212 6.6665,8.846059 7.96334,14.702867 0.43717,1.974365 0.48888,2.571035 0.50073,5.77808 0.014,3.778617 -0.12578,5.001407 -0.90775,7.942737 -0.72742,2.73611 -1.81568,5.28061 -3.38225,7.90812 -2.32737,3.90354 -4.82256,6.39288 -10.18102,10.15714 -10.36697,7.28268 -16.05193,11.6089 -19.380787,14.74867 -4.565932,4.30657 -8.784602,8.89276 -12.267047,13.33571 -3.28316,4.18871 -6.277369,8.56602 -10.396927,15.19951 -4.162485,6.70263 -4.859084,7.77747 -5.82331,8.98529 -1.017039,1.27398 -2.602352,2.86456 -4.167903,4.18176 -4.042439,3.40116 -9.79245,5.93403 -14.770385,6.50633 -2.083851,0.23957 -7.146758,0.18411 -8.654745,-0.0948 z m 9.924387,-11.87956 c 1.674795,-0.48764 4.250038,-1.69569 5.543352,-2.60039 3.103001,-2.17062 5.586128,-5.60896 6.913233,-9.57263 0.491259,-1.46725 0.507533,-1.63221 0.502394,-5.09273 -0.0051,-3.43947 -0.02464,-3.63453 -0.5105,-5.0963 -1.311544,-3.94601 -3.637797,-7.22299 -6.675828,-9.40418 -1.469242,-1.05487 -4.087032,-2.3009 -5.86206,-2.79027 -1.222124,-0.33694 -1.886456,-0.39451 -4.559853,-0.39514 -3.683691,-9e-4 -4.860847,0.25222 -7.778574,1.67246 -4.114357,2.00272 -7.166957,5.31431 -8.827081,9.57599 -3.383948,8.6869 0.43667,18.38268 8.872587,22.51643 2.787426,1.36589 4.563136,1.72217 8.180112,1.64126 2.274849,-0.0509 3.135883,-0.14401 4.202218,-0.4545 z m 52.767517,-58.50549 c 7.93843,-1.06148 14.46585,-8.31739 14.94039,-16.60781 0.12892,-2.252298 -0.1345,-4.603564 -0.72332,-6.456377 -1.9557,-6.153851 -7.56438,-10.968599 -14.13207,-12.131601 -1.53048,-0.271016 -5.233073,-0.231928 -6.670379,0.07042 -6.776785,1.425541 -12.250294,7.028479 -13.727831,14.052445 -0.343831,1.634511 -0.347373,5.444673 -0.0067,7.225113 0.573744,2.99869 2.436634,6.37677 4.817241,8.73537 2.594413,2.57042 6.39209,4.54038 9.882223,5.12617 1.302746,0.21865 3.930546,0.21223 5.620466,-0.0137 z"
       style="fill:#b8b161;fill-opacity:0.17004;stroke:none;stroke-width:0.178818;stroke-opacity:1" />
    <path
       transform="scale(0.26458333)"
       inkscape:connector-curvature="0"
       id="path870"
       d="m 120.04071,155.89705 c -1.76313,-2.73732 -6.43531,-8.2051 -11.18573,-13.09048 -2.92035,-3.00332 -4.73678,-5.20237 -4.48877,-5.43432 0.67673,-0.63293 9.92813,-7.24653 14.40418,-10.2972 9.84576,-6.71042 14.99343,-14.98702 16.12004,-25.91837 l 0.33233,-3.22449 3.13352,4.13191 c 1.72344,2.27255 5.61389,6.69319 8.64544,9.82365 l 5.51191,5.69173 -3.43661,2.73094 c -1.89013,1.50202 -5.98201,4.47933 -9.09308,6.61624 -3.25665,2.23691 -7.30032,5.525 -9.53108,7.75014 -3.26275,3.25453 -4.19392,4.52921 -5.89672,8.07201 -1.93106,4.01772 -3.2813,8.86378 -3.53873,12.70059 l -0.11934,1.77873 z"
       style="fill:#b8b161;fill-opacity:0.17004;stroke:none;stroke-width:0.447647;stroke-opacity:1" />
    <path
       transform="scale(0.26458333)"
       inkscape:connector-curvature="0"
       id="path872"
       d="m 149.0998,186.82354 c -6.50956,-1.27851 -11.21438,-3.70382 -15.67074,-8.07817 -3.76539,-3.6961 -5.97777,-7.19748 -7.59856,-12.02575 -3.66529,-10.91872 -0.39542,-23.17653 8.27118,-31.00628 0.95834,-0.8658 4.22136,-3.30632 7.25116,-5.42337 18.76824,-13.11417 29.51185,-24.52071 40.42939,-42.924039 6.23731,-10.514033 11.63656,-15.180483 20.36201,-17.598428 6.7996,-1.884265 15.02656,-0.923859 21.62323,2.524272 4.4136,2.307024 9.85899,7.743971 12.10177,12.082999 3.24885,6.285457 4.37414,15.038637 2.75315,21.415586 -1.9182,7.54613 -6.17038,12.90556 -15.26601,19.2412 -20.03917,13.95844 -30.11133,24.7261 -42.49176,45.42587 -4.25427,7.11304 -8.04897,10.87433 -13.68543,13.5649 -2.31129,1.10329 -5.10883,2.21779 -6.21675,2.47664 -3.57213,0.83459 -8.56964,0.97133 -11.86264,0.32457 z m 11.44565,-11.70533 c 12.9511,-3.78711 17.14564,-20.20531 7.60065,-29.75031 -5.50135,-5.50135 -13.91813,-6.81677 -20.92701,-3.2706 -3.0423,1.53926 -6.55473,5.24541 -8.10365,8.55058 -1.07051,2.28434 -1.2068,3.10597 -1.2068,7.27544 0,4.3307 0.10902,4.92909 1.38655,7.60999 3.82797,8.03311 12.76767,12.06534 21.25026,9.5849 z m 56.52389,-59.84765 c 6.97843,-3.21245 11.03545,-10.04934 10.46208,-17.630645 -0.63177,-8.353471 -6.5152,-14.775759 -14.97771,-16.349525 -7.4087,-1.377787 -15.25534,2.67346 -18.70771,9.658847 -4.94074,9.996913 0.0177,21.696173 10.6662,25.166383 1.18976,0.38773 3.37415,0.56732 5.91518,0.48631 3.24652,-0.1035 4.53624,-0.36202 6.64196,-1.33137 z"
       style="fill:#b8b161;fill-opacity:0.17004;stroke:none;stroke-width:0.447647;stroke-opacity:1" />
  </g>
</svg>
